HIERARCHY
ROOT Hips
{
	OFFSET 0.000000 100.481300 0.000000
	CHANNELS 6 Xposition Yposition Zposition Xrotation Yrotation Zrotation
	JOINT Spine
	{
		OFFSET -0.279200 12.230698 -2.892100
		CHANNELS 3 Xrotation Yrotation Zrotation
		JOINT Spine1
		{
			OFFSET -0.325700 14.269203 -3.374200
			CHANNELS 3 Xrotation Yrotation Zrotation
			JOINT Spine2
			{
				OFFSET -0.372300 16.307602 -0.352600
				CHANNELS 3 Xrotation Yrotation Zrotation
				JOINT Neck
				{
					OFFSET -0.418800 17.814194 8.416900
					CHANNELS 3 Xrotation Yrotation Zrotation
					JOINT Head
					{
						OFFSET 0.000000 7.031097 3.806800
						CHANNELS 3 Xrotation Yrotation Zrotation
						JOINT HeadTop_End
						{
							OFFSET 0.000000 24.646606 12.978600
							CHANNELS 3 Xrotation Yrotation Zrotation
							End Site
							{
								OFFSET 0.000000 27.854965 0.000000
							}
						}
					}
				}
				JOINT LeftShoulder
				{
					OFFSET 16.952999 14.495407 -7.737500
					CHANNELS 3 Xrotation Yrotation Zrotation
					JOINT LeftArm
					{
						OFFSET 9.308998 -2.777710 0.208600
						CHANNELS 3 Xrotation Yrotation Zrotation
						JOINT LeftForeArm
						{
							OFFSET 29.972298 0.000000 0.000000
							CHANNELS 3 Xrotation Yrotation Zrotation
							JOINT LeftHand
							{
								OFFSET 26.026505 0.000000 0.000000
								CHANNELS 3 Xrotation Yrotation Zrotation
								JOINT LeftHandThumb1
								{
									OFFSET 12.240501 -7.147949 9.207150
									CHANNELS 3 Xrotation Yrotation Zrotation
									JOINT LeftHandThumb2
									{
										OFFSET 4.138618 -2.389435 2.389433
										CHANNELS 3 Xrotation Yrotation Zrotation
										JOINT LeftHandThumb3
										{
											OFFSET 2.726913 -1.574387 1.574386
											CHANNELS 3 Xrotation Yrotation Zrotation
											JOINT LeftHandThumb4
											{
												OFFSET 3.941010 -2.275345 2.275342
												CHANNELS 3 Xrotation Yrotation Zrotation
												End Site
												{
													OFFSET -0.005798 5.087799 0.009903
												}
											}
										}
									}
								}
								JOINT LeftHandIndex1
								{
									OFFSET 24.424698 -1.985611 5.953459
									CHANNELS 3 Xrotation Yrotation Zrotation
									JOINT LeftHandIndex2
									{
										OFFSET 6.426697 0.000000 0.000000
										CHANNELS 3 Xrotation Yrotation Zrotation
										JOINT LeftHandIndex3
										{
											OFFSET 5.337898 0.000000 0.000000
											CHANNELS 3 Xrotation Yrotation Zrotation
											JOINT LeftHandIndex4
											{
												OFFSET 4.409401 0.000000 0.000000
												CHANNELS 3 Xrotation Yrotation Zrotation
												End Site
												{
													OFFSET 0.000000 4.409363 0.014373
												}
											}
										}
									}
								}
								JOINT LeftHandMiddle1
								{
									OFFSET 23.810104 0.000000 0.000000
									CHANNELS 3 Xrotation Yrotation Zrotation
									JOINT LeftHandMiddle2
									{
										OFFSET 7.176498 0.000000 0.000000
										CHANNELS 3 Xrotation Yrotation Zrotation
										JOINT LeftHandMiddle3
										{
											OFFSET 6.774902 0.000000 0.000000
											CHANNELS 3 Xrotation Yrotation Zrotation
											JOINT LeftHandMiddle4
											{
												OFFSET 5.403328 0.000000 0.000000
												CHANNELS 3 Xrotation Yrotation Zrotation
												End Site
												{
													OFFSET -0.027702 5.403244 0.017414
												}
											}
										}
									}
								}
								JOINT LeftHandRing1
								{
									OFFSET 22.908401 -0.839279 -6.020567
									CHANNELS 3 Xrotation Yrotation Zrotation
									JOINT LeftHandRing2
									{
										OFFSET 6.337502 0.000000 0.000000
										CHANNELS 3 Xrotation Yrotation Zrotation
										JOINT LeftHandRing3
										{
											OFFSET 5.779297 0.000000 0.000000
											CHANNELS 3 Xrotation Yrotation Zrotation
											JOINT LeftHandRing4
											{
												OFFSET 4.965698 0.000000 0.000000
												CHANNELS 3 Xrotation Yrotation Zrotation
												End Site
												{
													OFFSET 0.000000 4.965668 0.016186
												}
											}
										}
									}
								}
								JOINT LeftHandPinky1
								{
									OFFSET 20.037003 -1.530319 -10.950146
									CHANNELS 3 Xrotation Yrotation Zrotation
									JOINT LeftHandPinky2
									{
										OFFSET 5.254700 0.000000 0.000000
										CHANNELS 3 Xrotation Yrotation Zrotation
										JOINT LeftHandPinky3
										{
											OFFSET 4.810204 0.000000 0.000000
											CHANNELS 3 Xrotation Yrotation Zrotation
											JOINT LeftHandPinky4
											{
												OFFSET 3.647202 0.000000 0.000000
												CHANNELS 3 Xrotation Yrotation Zrotation
												End Site
												{
													OFFSET 0.000000 3.647186 0.011889
												}
											}
										}
									}
								}
							}
						}
					}
				}
				JOINT RightShoulder
				{
					OFFSET -15.141001 14.495407 -7.737500
					CHANNELS 3 Xrotation Yrotation Zrotation
					JOINT RightArm
					{
						OFFSET -9.308998 -2.777710 0.208500
						CHANNELS 3 Xrotation Yrotation Zrotation
						JOINT RightForeArm
						{
							OFFSET -29.972300 0.000000 0.000000
							CHANNELS 3 Xrotation Yrotation Zrotation
							JOINT RightHand
							{
								OFFSET -26.026505 0.000000 0.000000
								CHANNELS 3 Xrotation Yrotation Zrotation
								JOINT RightHandThumb1
								{
									OFFSET -12.240601 -7.148026 9.207092
									CHANNELS 3 Xrotation Yrotation Zrotation
									JOINT RightHandThumb2
									{
										OFFSET -4.138618 -2.389435 2.389433
										CHANNELS 3 Xrotation Yrotation Zrotation
										JOINT RightHandThumb3
										{
											OFFSET -2.726974 -1.574417 1.574421
											CHANNELS 3 Xrotation Yrotation Zrotation
											JOINT RightHandThumb4
											{
												OFFSET -3.941010 -2.275345 2.275343
												CHANNELS 3 Xrotation Yrotation Zrotation
												End Site
												{
													OFFSET 0.005814 5.087799 0.009927
												}
											}
										}
									}
								}
								JOINT RightHandIndex1
								{
									OFFSET -24.424698 -1.985657 5.953444
									CHANNELS 3 Xrotation Yrotation Zrotation
									JOINT RightHandIndex2
									{
										OFFSET -6.426697 0.000000 0.000000
										CHANNELS 3 Xrotation Yrotation Zrotation
										JOINT RightHandIndex3
										{
											OFFSET -5.337898 0.000000 0.000000
											CHANNELS 3 Xrotation Yrotation Zrotation
											JOINT RightHandIndex4
											{
												OFFSET -4.409401 0.000000 0.000000
												CHANNELS 3 Xrotation Yrotation Zrotation
												End Site
												{
													OFFSET 0.000000 4.409363 0.014408
												}
											}
										}
									}
								}
								JOINT RightHandMiddle1
								{
									OFFSET -23.810097 0.000000 0.000000
									CHANNELS 3 Xrotation Yrotation Zrotation
									JOINT RightHandMiddle2
									{
										OFFSET -7.176498 0.000000 0.000000
										CHANNELS 3 Xrotation Yrotation Zrotation
										JOINT RightHandMiddle3
										{
											OFFSET -6.774902 0.000000 0.000000
											CHANNELS 3 Xrotation Yrotation Zrotation
											JOINT RightHandMiddle4
											{
												OFFSET -5.403328 0.000000 0.000000
												CHANNELS 3 Xrotation Yrotation Zrotation
												End Site
												{
													OFFSET 0.027702 5.403244 0.017457
												}
											}
										}
									}
								}
								JOINT RightHandRing1
								{
									OFFSET -22.908302 -0.839325 -6.020576
									CHANNELS 3 Xrotation Yrotation Zrotation
									JOINT RightHandRing2
									{
										OFFSET -6.337502 0.000000 0.000000
										CHANNELS 3 Xrotation Yrotation Zrotation
										JOINT RightHandRing3
										{
											OFFSET -5.779297 0.000000 0.000000
											CHANNELS 3 Xrotation Yrotation Zrotation
											JOINT RightHandRing4
											{
												OFFSET -4.965698 0.000000 0.000000
												CHANNELS 3 Xrotation Yrotation Zrotation
												End Site
												{
													OFFSET 0.000000 4.965668 0.016226
												}
											}
										}
									}
								}
								JOINT RightHandPinky1
								{
									OFFSET -20.037003 -1.530334 -10.950259
									CHANNELS 3 Xrotation Yrotation Zrotation
									JOINT RightHandPinky2
									{
										OFFSET -5.254700 0.000000 0.000000
										CHANNELS 3 Xrotation Yrotation Zrotation
										JOINT RightHandPinky3
										{
											OFFSET -4.810204 0.000000 0.000000
											CHANNELS 3 Xrotation Yrotation Zrotation
											JOINT RightHandPinky4
											{
												OFFSET -3.647202 0.000000 0.000000
												CHANNELS 3 Xrotation Yrotation Zrotation
												End Site
												{
													OFFSET 0.000000 3.647186 0.011917
												}
											}
										}
									}
								}
							}
						}
					}
				}
			}
		}
	}
	JOINT LeftUpLeg
	{
		OFFSET 15.427100 -6.655098 0.678600
		CHANNELS 3 Xrotation Yrotation Zrotation
		JOINT LeftLeg
		{
			OFFSET 4.081073 -39.591068 13.024000
			CHANNELS 3 Xrotation Yrotation Zrotation
			JOINT LeftFoot
			{
				OFFSET -4.081074 -37.707932 -15.979700
				CHANNELS 3 Xrotation Yrotation Zrotation
				JOINT LeftToeBase
				{
					OFFSET 5.346399 -15.068900 20.645000
					CHANNELS 3 Xrotation Yrotation Zrotation
					JOINT LeftToe_End
					{
						OFFSET 2.754700 0.931300 11.300900
						CHANNELS 3 Xrotation Yrotation Zrotation
						End Site
						{
							OFFSET 0.000000 11.669021 0.000000
						}
					}
				}
			}
		}
	}
	JOINT RightUpLeg
	{
		OFFSET -15.569500 -6.655098 0.678600
		CHANNELS 3 Xrotation Yrotation Zrotation
		JOINT RightLeg
		{
			OFFSET -4.081825 -39.591045 13.023800
			CHANNELS 3 Xrotation Yrotation Zrotation
			JOINT RightFoot
			{
				OFFSET 4.081824 -37.707954 -15.979600
				CHANNELS 3 Xrotation Yrotation Zrotation
				JOINT RightToeBase
				{
					OFFSET -5.346400 -15.068900 20.645000
					CHANNELS 3 Xrotation Yrotation Zrotation
					JOINT RightToe_End
					{
						OFFSET -2.754700 0.931300 11.300900
						CHANNELS 3 Xrotation Yrotation Zrotation
						End Site
						{
							OFFSET 0.000000 11.669021 0.000000
						}
					}
				}
			}
		}
	}
}
MOTION
Frames: 4
Frame Time: 0.033333
-10.346359 50.808044 -27.556730 -22.577185 29.623541 0.603452 13.297886 3.425722 -0.308672 7.299130 -3.264157 4.441036 7.397281 -3.115637 4.414503 -24.674637 -24.502726 18.168926 -2.341671 -15.145507 1.757423 0.000001 0.000000 -0.000000 -6.490650 -30.908928 -12.517511 -26.512433 -35.352912 -38.801116 3.842713 -47.695747 -18.835030 -16.111330 15.696955 20.605226 -20.755135 3.217203 19.922690 1.813623 15.937159 -3.137426 -0.520404 -2.990851 0.596331 -0.000001 -0.000003 -0.000002 10.252034 2.714001 16.590545 -0.185675 0.288516 -12.722003 -0.198079 0.309659 -17.768879 -0.000003 -0.000000 -0.000000 9.225839 0.379682 5.899144 0.186959 0.629282 -21.543832 0.281000 0.105793 -13.824251 0.000002 0.000000 -0.000001 6.431320 1.523599 -0.864254 0.053251 0.225827 -15.638620 0.277970 0.811302 -29.170020 -0.000002 -0.000000 0.000002 -5.454428 3.996213 1.038845 0.174488 0.223580 -32.101169 0.125159 0.111005 -8.793121 0.000001 -0.000000 0.000005 -10.281873 23.883976 23.519224 -6.634263 -12.497049 24.409855 192.528976 121.006582 -190.106882 -17.724956 -10.799696 -5.037553 -3.587544 3.248505 -20.672780 7.290073 -16.040972 14.144848 9.001181 -12.918796 2.626795 -0.000000 0.000001 -0.000000 19.197266 10.665490 3.799590 -0.108670 -0.330579 27.985520 -0.053204 -0.280508 33.046190 0.000000 -0.000001 0.000000 4.185809 2.344608 3.957607 0.398849 -0.490048 35.655766 0.521081 0.135533 47.809770 -0.000001 0.000000 -0.000001 -6.935194 -9.855358 14.509613 0.115950 -0.147708 34.920903 0.539931 -0.475703 42.030604 0.000002 -0.000003 -0.000003 -19.147621 -18.611786 14.849065 0.255037 -0.116916 45.609753 0.299859 -0.072070 45.236845 -0.000001 -0.000000 -0.000001 -66.695902 -4.344877 -18.485333 30.591321 -24.202067 2.140038 38.314861 -8.525417 -26.972511 -7.579831 6.945957 3.485080 0.000001 0.000000 -0.000001 11.038801 -10.709008 -39.999022 86.003686 17.443531 16.058914 -43.483115 3.111017 8.677782 -20.768677 -10.688601 17.373493 -0.000000 0.000000 0.000000 
-11.268072 47.548424 -29.438416 -23.735109 33.162341 -0.094791 13.506581 3.479461 0.305908 7.524702 -3.595705 5.628830 7.656494 -3.437342 5.571247 -22.657590 -25.722025 20.475119 -2.436647 -15.594145 2.037938 -0.000001 -0.000000 0.000000 -4.575260 -32.076942 -10.889303 -34.398492 -40.674101 -41.695402 7.315396 -45.237842 -14.457311 -14.385386 16.119158 19.705289 -21.298685 4.049641 20.474409 1.536986 15.802462 -2.821177 -0.768092 -3.147110 0.830924 0.000001 0.000001 0.000001 10.253582 3.345827 17.250645 -0.186101 0.288022 -12.201015 -0.199503 0.309640 -17.394916 0.000000 0.000001 -0.000001 9.263264 0.557477 6.514214 0.186187 0.628695 -21.401230 0.276870 0.101040 -12.844615 0.000000 0.000000 -0.000002 6.424722 1.399435 -0.490916 0.053757 0.223394 -15.264706 0.274820 0.810742 -28.853311 -0.000000 0.000000 -0.000000 -5.450307 3.847956 1.411795 0.173366 0.222059 -31.727158 0.122402 0.105063 -7.550747 -0.000002 0.000001 -0.000000 -9.539565 24.531135 23.514232 -7.803754 -13.830158 21.505078 190.186795 119.710936 -188.164021 -16.712950 -11.395552 -5.613199 -3.995599 2.555028 -21.468101 7.008361 -15.715065 14.129826 8.792509 -12.546047 2.635517 -0.000001 0.000002 0.000003 18.972517 10.223179 0.577886 -0.109693 -0.329907 27.020493 -0.057249 -0.281501 31.948756 -0.000000 -0.000000 0.000000 4.214420 2.366839 2.014270 0.387479 -0.484315 33.713206 0.508936 0.138945 45.867364 0.000001 0.000002 0.000001 -6.813567 -9.072674 12.598671 0.114275 -0.134816 32.978431 0.520295 -0.476390 40.088040 0.000001 -0.000001 -0.000000 -18.907695 -17.231211 12.981449 0.247727 -0.110433 43.667220 0.290874 -0.067138 43.294377 0.000004 0.000000 -0.000002 -69.168253 -0.914928 -16.268013 29.443228 -20.497876 0.019425 43.398025 -8.012321 -23.227986 -6.472785 3.997687 2.404550 -0.000000 0.000000 -0.000001 10.645502 -5.324378 -39.033459 89.950183 19.931938 15.381057 -40.312166 0.616686 11.533358 -25.678999 -11.878684 17.006486 -0.000000 0.000000 -0.000000 
-12.145081 43.965195 -31.052242 -25.080448 36.902908 -0.558063 13.734161 3.390104 0.632802 7.748195 -3.873298 6.613869 7.933440 -3.699083 6.509542 -20.376095 -26.713695 22.861958 -2.287381 -15.926558 2.471169 -0.000000 0.000002 -0.000001 -2.315955 -32.922222 -9.207301 -42.974550 -45.069222 -45.303695 11.747234 -43.823730 -9.618577 -21.891931 14.456673 20.236691 -21.684797 4.798287 20.977645 1.326917 15.699465 -2.581715 -0.956686 -3.266024 1.008318 -0.000001 -0.000001 -0.000003 10.255344 3.826000 17.752225 -0.186448 0.287595 -11.805114 -0.200565 0.309640 -17.110729 -0.000001 0.000000 0.000000 9.291690 0.692627 6.981486 0.185677 0.628216 -21.292900 0.273771 0.097342 -12.100243 -0.000001 -0.000000 0.000004 6.420231 1.305164 -0.207216 0.054141 0.221530 -14.980574 0.272442 0.810303 -28.612636 0.000000 -0.000000 -0.000000 -5.447452 3.735287 1.695243 0.172550 0.220887 -31.443022 0.120355 0.100506 -6.606720 0.000000 0.000001 0.000001 -8.557885 25.053650 23.263503 -9.013907 -15.264759 19.301532 188.971991 118.899004 -186.695667 -16.011816 -12.515683 -5.324630 -4.482780 1.734321 -22.435247 6.672962 -15.326063 14.114950 8.543624 -12.101226 2.648234 -0.000003 -0.000001 0.000001 18.705349 9.694546 -3.272526 -0.110908 -0.329048 25.868493 -0.062112 -0.282566 30.638702 -0.000000 -0.000000 0.000001 4.249494 2.392053 -0.305628 0.374136 -0.476976 31.394278 0.494644 0.143522 43.548586 0.000000 0.000001 0.000001 -6.671903 -8.138080 10.313365 0.112845 -0.119363 30.659637 0.496798 -0.476350 37.769122 -0.000002 0.000001 0.000001 -18.649147 -15.579610 10.736837 0.239258 -0.102351 41.348442 0.280339 -0.060857 40.975524 0.000002 0.000002 -0.000002 -71.604076 3.472473 -13.709870 29.043624 -15.933399 -2.516478 46.864486 -7.659059 -17.950193 -4.013378 2.080697 2.057040 0.000001 -0.000000 0.000000 11.264615 1.822515 -38.325397 94.556599 20.435393 14.428423 -36.403539 -1.836962 17.661227 -30.348631 -14.750673 18.660379 0.000000 0.000001 -0.000000 
-12.874519 40.284920 -32.746193 -26.024575 40.084034 -0.799283 13.788078 2.948415 0.347282 7.734944 -3.893552 6.935565 7.977419 -3.706705 6.775083 -17.793232 -27.292717 25.159232 -2.018593 -16.077616 2.983104 -0.000000 -0.000001 0.000001 0.080194 -33.416284 -7.515169 -50.237903 -48.010663 -48.817934 14.328270 -43.743807 -6.212453 -29.256808 13.144415 20.928518 -21.893700 5.454568 21.414883 1.190756 15.632529 -2.426960 -1.078814 -3.343317 1.122898 -0.000000 0.000001 -0.000000 10.257252 4.137104 18.077100 -0.186651 0.287392 -11.548565 -0.201271 0.309604 -16.926670 0.000001 0.000000 -0.000001 9.310096 0.780164 7.284128 0.185321 0.627944 -21.222714 0.271803 0.094930 -11.617957 -0.000001 0.000001 0.000000 6.420231 1.244079 -0.023584 0.054370 0.220270 -14.796474 0.270865 0.810026 -28.456720 -0.000001 0.000000 -0.000000 -5.445950 3.662261 1.878893 0.171990 0.220161 -31.258934 0.119091 0.097571 -5.995073 -0.000001 0.000001 0.000002 -7.480550 25.469782 22.952576 -9.885381 -16.574776 18.565818 189.166665 119.180230 -185.969713 -15.719658 -13.489404 -4.275419 -5.021382 0.836843 -23.526366 6.303522 -14.896164 14.102533 8.268850 -11.610067 2.665149 -0.000002 -0.000001 0.000001 18.411536 9.109750 -7.532806 -0.112219 -0.328036 24.595574 -0.067501 -0.283637 29.191139 0.000001 0.000001 -0.000000 4.289420 2.418252 -2.869130 0.359759 -0.468270 28.831991 0.479095 0.149279 40.986377 0.000000 -0.000001 -0.000000 -6.519723 -7.105056 7.783077 0.111970 -0.102233 28.097435 0.470883 -0.475207 35.206763 0.000001 -0.000002 -0.000000 -18.397576 -13.750669 8.239533 0.230286 -0.093113 38.786175 0.269093 -0.053461 38.413295 0.000004 -0.000000 0.000000 -72.963072 8.735238 -10.670087 27.420877 -9.700331 -5.056455 50.488506 -7.292145 -12.779920 -1.942283 1.604944 0.243296 0.000000 -0.000000 0.000001 9.918563 9.867398 -37.378535 100.230608 20.521635 12.065200 -31.533358 -4.710033 22.632892 -33.274988 -19.937963 21.964012 -0.000000 -0.000001 0.000000 
